<svg width="240" height="40" viewBox="0 0 24 24" fill="none" xmlns="http://www.w3.org/2000/svg">
        <path
            d="M19.0547 18.7313C18.1594 16.5422 16.0078 15 13.5 15H10.5C7.99219 15 5.84063 16.5422 4.94531 18.7313C3.27656 16.9781 2.25 14.6109 2.25 12C2.25 6.61406 6.61406 2.25 12 2.25C17.3859 2.25 21.75 6.61406 21.75 12C21.75 14.6109 20.7234 16.9781 19.0547 18.7313ZM17.175 20.2641C15.675 21.2062 13.9031 21.75 12 21.75C10.0969 21.75 8.325 21.2062 6.82031 20.2641C7.1625 18.5437 8.68125 17.25 10.5 17.25H13.5C15.3187 17.25 16.8375 18.5437 17.1797 20.2641H17.175ZM12 24C15.1826 24 18.2348 22.7357 20.4853 20.4853C22.7357 18.2348 24 15.1826 24 12C24 8.8174 22.7357 5.76516 20.4853 3.51472C18.2348 1.26428 15.1826 0 12 0C8.8174 0 5.76516 1.26428 3.51472 3.51472C1.26428 5.76516 0 8.8174 0 12C0 15.1826 1.26428 18.2348 3.51472 20.4853C5.76516 22.7357 8.8174 24 12 24Z"
            fill="white" />
        <path
            d="M12 11.25C11.5027 11.25 11.0258 11.0525 10.6742 10.7008C10.3225 10.3492 10.125 9.87228 10.125 9.375C10.125 8.87772 10.3225 8.40081 10.6742 8.04918C11.0258 7.69754 11.5027 7.5 12 7.5C12.4973 7.5 12.9742 7.69754 13.3258 8.04918C13.6775 8.40081 13.875 8.87772 13.875 9.375C13.875 9.87228 13.6775 10.3492 13.3258 10.7008C12.9742 11.0525 12.4973 11.25 12 11.25ZM7.875 9.375C7.875 10.469 8.3096 11.5182 9.08318 12.2918C9.85677 13.0654 10.906 13.5 12 13.5C13.094 13.5 14.1432 13.0654 14.9168 12.2918C15.6904 11.5182 16.125 10.469 16.125 9.375C16.125 8.28098 15.6904 7.23177 14.9168 6.45818C14.1432 5.6846 13.094 5.25 12 5.25C10.906 5.25 9.85677 5.6846 9.08318 6.45818C8.3096 7.23177 7.875 8.28098 7.875 9.375Z"
            fill="white" />
    </svg>